<svg width="128" height="128" viewBox="0 0 128 128" xmlns="http://www.w3.org/2000/svg">
  <!-- 배경 -->
  <rect width="128" height="128" rx="16" fill="url(#bgGradient)"/>

  <!-- 중앙 손바닥 -->
  <ellipse cx="64" cy="70" rx="35" ry="40" fill="#FFF" opacity="0.95"/>

  <!-- 손가락들 -->
  <g stroke="#4CAF50" stroke-width="3" fill="#4CAF50">
    <!-- 엄지손가락 -->
    <path d="M85 55 Q90 50 88 45 Q85 40 80 42 Q78 45 82 50 Z"/>
    <!-- 검지 -->
    <rect x="55" y="35" width="8" height="25" rx="4"/>
    <!-- 중지 -->
    <rect x="66" y="30" width="8" height="30" rx="4"/>
    <!-- 약지 -->
    <rect x="77" y="32" width="8" height="28" rx="4"/>
    <!-- 새끼손가락 -->
    <rect x="88" y="38" width="7" height="22" rx="3.5"/>
  </g>

  <!-- 스크롤 화살표들 -->
  <g fill="#FFF" opacity="0.9">
    <!-- 위쪽 화살표 -->
    <path d="M64 25 L58 35 L70 35 Z"/>
    <!-- 아래쪽 화살표 -->
    <path d="M64 103 L58 93 L70 93 Z"/>
  </g>

  <!-- 중앙 제어 표시 -->
  <circle cx="64" cy="64" r="12" fill="none" stroke="#FFF" stroke-width="2" opacity="0.7"/>
  <circle cx="64" cy="64" r="6" fill="#4CAF50" opacity="0.5"/>

  <!-- 손 제스처 효과선 -->
  <g stroke="#FFF" stroke-width="1" opacity="0.3">
    <path d="M35 50 Q25 45 20 55"/>
    <path d="M93 50 Q103 45 108 55"/>
  </g>

  <!-- 그라디언트 정의 -->
  <defs>
    <radialGradient id="bgGradient" cx="50%" cy="50%" r="70%">
      <stop offset="0%" style="stop-color:#4CAF50;stop-opacity:1" />
      <stop offset="50%" style="stop-color:#66BB6A;stop-opacity:0.9" />
      <stop offset="100%" style="stop-color:#2E7D32;stop-opacity:0.8" />
    </radialGradient>
  </defs>
</svg>
